<svg width="40" height="40" viewBox="0 0 40 40" fill="none" xmlns="http://www.w3.org/2000/svg">
<path d="M3.33334 16.6667C3.33334 15.7826 3.68453 14.9348 4.30965 14.3097C4.93478 13.6845 5.78262 13.3333 6.66668 13.3333H33.3333C34.2174 13.3333 35.0652 13.6845 35.6904 14.3097C36.3155 14.9348 36.6667 15.7826 36.6667 16.6667V28.3333C36.6667 29.2174 36.3155 30.0652 35.6904 30.6904C35.0652 31.3155 34.2174 31.6667 33.3333 31.6667H26.8867C26.3111 31.6667 25.7452 31.5176 25.2443 31.234C24.7434 30.9504 24.3245 30.5419 24.0283 30.0483L21.4283 25.715C21.2802 25.4686 21.0708 25.2647 20.8205 25.1231C20.5702 24.9816 20.2875 24.9072 20 24.9072C19.7125 24.9072 19.4298 24.9816 19.1795 25.1231C18.9293 25.2647 18.7199 25.4686 18.5717 25.715L15.9717 30.0483C15.6755 30.5419 15.2566 30.9504 14.7557 31.234C14.2548 31.5176 13.689 31.6667 13.1133 31.6667H6.66668C5.78262 31.6667 4.93478 31.3155 4.30965 30.6904C3.68453 30.0652 3.33334 29.2174 3.33334 28.3333V16.6667Z" stroke="white" stroke-width="2" stroke-linecap="round" stroke-linejoin="round"/>
<path d="M6.355 11.3017C6.96364 10.3888 7.78818 9.6403 8.75545 9.12251C9.72273 8.60471 10.8028 8.33364 11.9 8.33334H28.0967C29.1941 8.33336 30.2746 8.6043 31.2421 9.12211C32.2097 9.63992 33.0345 10.3886 33.6433 11.3017L35 13.3333H5L6.355 11.3017V11.3017Z" stroke="white" stroke-width="2" stroke-linecap="round" stroke-linejoin="round"/>
</svg>
